<svg width="21" height="21" viewBox="0 0 21 21" fill="none" xmlns="http://www.w3.org/2000/svg">
<path d="M5.25 2.625C5.25 4.07475 4.07475 5.25 2.625 5.25C1.17525 5.25 0 4.07475 0 2.625C0 1.17525 1.17525 0 2.625 0C4.07475 0 5.25 1.17525 5.25 2.625Z" fill="black"/>
<path d="M5.25 10.5C5.25 11.9498 4.07475 13.125 2.625 13.125C1.17525 13.125 0 11.9498 0 10.5C0 9.05021 1.17525 7.875 2.625 7.875C4.07475 7.875 5.25 9.05021 5.25 10.5Z" fill="black"/>
<path d="M2.625 21C4.07475 21 5.25 19.8248 5.25 18.375C5.25 16.9252 4.07475 15.75 2.625 15.75C1.17525 15.75 0 16.9252 0 18.375C0 19.8248 1.17525 21 2.625 21Z" fill="black"/>
<path d="M13.125 2.625C13.125 4.07475 11.9498 5.25 10.5 5.25C9.05021 5.25 7.875 4.07475 7.875 2.625C7.875 1.17525 9.05021 0 10.5 0C11.9498 0 13.125 1.17525 13.125 2.625Z" fill="black"/>
<path d="M10.5 13.125C11.9498 13.125 13.125 11.9498 13.125 10.5C13.125 9.05021 11.9498 7.875 10.5 7.875C9.05021 7.875 7.875 9.05021 7.875 10.5C7.875 11.9498 9.05021 13.125 10.5 13.125Z" fill="black"/>
<path d="M13.125 18.375C13.125 19.8248 11.9498 21 10.5 21C9.05021 21 7.875 19.8248 7.875 18.375C7.875 16.9252 9.05021 15.75 10.5 15.75C11.9498 15.75 13.125 16.9252 13.125 18.375Z" fill="black"/>
<path d="M18.375 5.25C19.8248 5.25 21 4.07475 21 2.625C21 1.17525 19.8248 0 18.375 0C16.9252 0 15.75 1.17525 15.75 2.625C15.75 4.07475 16.9252 5.25 18.375 5.25Z" fill="black"/>
<path d="M21 10.5C21 11.9498 19.8248 13.125 18.375 13.125C16.9252 13.125 15.75 11.9498 15.75 10.5C15.75 9.05021 16.9252 7.875 18.375 7.875C19.8248 7.875 21 9.05021 21 10.5Z" fill="black"/>
<path d="M18.375 21C19.8248 21 21 19.8248 21 18.375C21 16.9252 19.8248 15.75 18.375 15.75C16.9252 15.75 15.75 16.9252 15.75 18.375C15.75 19.8248 16.9252 21 18.375 21Z" fill="black"/>
</svg>
