<svg width="26" height="24" viewBox="0 0 26 24" fill="none" xmlns="http://www.w3.org/2000/svg">
<path d="M19.5822 23.9999C19.3782 23.9998 19.1773 23.9502 18.9967 23.8555L12.583 20.4837L6.16931 23.8555C5.96148 23.9647 5.72722 24.0137 5.49304 23.9967C5.25885 23.9798 5.03407 23.8977 4.84411 23.7597C4.65415 23.6217 4.50658 23.4333 4.41808 23.2158C4.32958 22.9983 4.30369 22.7604 4.34333 22.529L5.56843 15.3873L0.379857 10.3302C0.211772 10.1663 0.0928905 9.9586 0.036647 9.73065C-0.0195965 9.50269 -0.0109594 9.26355 0.061582 9.04024C0.134123 8.81694 0.267677 8.61837 0.44715 8.46699C0.626623 8.31561 0.84486 8.21744 1.0772 8.18358L8.24783 7.14156L11.4543 0.644204C11.5702 0.447977 11.7353 0.285357 11.9332 0.172387C12.1311 0.0594164 12.3551 0 12.583 0C12.8109 0 13.0348 0.0594164 13.2327 0.172387C13.4307 0.285357 13.5957 0.447977 13.7116 0.644204L16.9182 7.14145L24.0888 8.18347C24.3211 8.21733 24.5394 8.31549 24.7188 8.46688C24.8983 8.61826 25.0319 8.81682 25.1044 9.04013C25.1769 9.26343 25.1856 9.50258 25.1293 9.73053C25.0731 9.95849 24.9542 10.1662 24.7861 10.3301L19.5975 15.3872L20.8226 22.5289C20.8536 22.7095 20.8448 22.8947 20.7967 23.0716C20.7486 23.2484 20.6625 23.4127 20.5444 23.5527C20.4262 23.6928 20.2789 23.8054 20.1127 23.8827C19.9465 23.9599 19.7655 23.9999 19.5822 23.9999Z" fill="#B8B8B8"/>
</svg>
